<svg viewBox="0 0 96 96" xmlns="http://www.w3.org/2000/svg" xmlns:xlink="http://www.w3.org/1999/xlink" id="Icons_Transfer" overflow="hidden"><path d="M7 61 81.76 61 72.88 52.12C71.7505 50.9078 71.8175 49.0095 73.0297 47.88 74.1818 46.8064 75.9679 46.8064 77.12 47.88L91.12 61.88C92.2898 63.0513 92.2898 64.9487 91.12 66.12L77.12 80.12C75.9487 81.2898 74.0513 81.2898 72.88 80.12 71.7102 78.9487 71.7102 77.0513 72.88 75.88L81.76 67 7 67C5.34315 67 4 65.6569 4 64 4 62.3431 5.34315 61 7 61Z"/><path d="M89 29 14.24 29 23.12 20.12C24.3322 18.9905 24.3992 17.0922 23.2697 15.88 22.1402 14.6678 20.2418 14.6008 19.0297 15.7303 18.978 15.7784 18.9281 15.8284 18.88 15.88L4.88 29.88C3.71019 31.0513 3.71019 32.9487 4.88 34.12L18.88 48.12C20.0513 49.2898 21.9487 49.2898 23.12 48.12 24.2898 46.9487 24.2898 45.0513 23.12 43.88L14.24 35 89 35C90.6569 35 92 33.6569 92 32 92 30.3431 90.6569 29 89 29Z"/></svg>