<svg viewBox="0 0 96 96" xmlns="http://www.w3.org/2000/svg" xmlns:xlink="http://www.w3.org/1999/xlink" id="Icons_SecurityCamera" overflow="hidden"><path d="M40.6 44C38.4 44 36.6 42.2 36.6 40 36.6 37.8 38.4 36 40.6 36 42.8 36 44.6 37.8 44.6 40 44.6 42.2 42.8 44 40.6 44ZM82.2 41.5 28.7 19.3 19.5 41.5 37.6 49.1 37.6 53C37.6 57.4 34 61 29.6 61L14.6 61 14.6 14 8.6 14 8.6 82 14.6 82 14.6 67 29.6 67C37.3 67 43.6 60.7 43.6 53L43.6 51.5 60.6 58.5 82.2 41.5Z"/><path d="M80.1 48.3 71.2 55.3 78.5 58.3 87.4 51.3Z"/></svg>