<svg viewBox="0 0 96 96" xmlns="http://www.w3.org/2000/svg" xmlns:xlink="http://www.w3.org/1999/xlink" id="Icons_MopAndBucket" overflow="hidden"><path d="M84 69.7 87.7 70.4 88 68.8C88.4 66.6 87 64.5 84.8 64.1L79 63.1 75.8 58.4 86 4 79.9 4 69.9 57.2 65.2 60.4 59.4 59.3C57.2 58.9 55.1 60.3 54.7 62.5L54.4 64.1 59.2 65C59 69.6 57.3 79.4 48.5 90.8L54.1 90.8C54.1 90.8 57.4 84.4 59.7 83.8 61.8 83.3 56.7 88.7 58.3 90.8L63.9 90.8C65.8 90.8 68.8 82.6 70.9 83.8 72.4 84.7 68.4 90.2 70.9 90.8L75.1 90.8C78.4 90.3 77.5 82 79.8 80.4 81.3 79.3 80.7 90.8 80.7 90.8L87.7 90.8C84.3 82.5 83.9 74 84 69.7Z"/><path d="M51.4 59C51.4 59 51.5 58.3 51.5 58 51.5 52.5 41.1 50 31.5 50 21.9 50 11.5 52.5 11.5 58 11.5 58.3 11.6 59 11.6 59.1L12.3 62.3 11.7 59.5C7.3 67.2 6.5 74.7 10.6 79 12.1 80.6 14.2 81.5 16.6 81.9 17.2 82 17.9 82 18.5 82L18.5 82C25.1 82 33.6 77.9 40.6 71.3 40.8 71.1 41 70.9 41.2 70.7 41.2 70.7 41.2 70.7 41.2 70.7L41.2 70.7C41.7 70.2 42.2 69.7 42.7 69.2 42.8 69.2 43 69.3 43.1 69.3 44.2 69.3 45.1 68.4 45.1 67.3 45.1 66.2 44.2 65.3 43.1 65.3 42 65.3 41.1 66.2 41.1 67.3 41.1 67.5 41.1 67.7 41.2 67.9 40.7 68.4 40.2 68.9 39.7 69.4 39.3 68.8 39.1 68.1 39.1 67.3 39.1 65.1 40.9 63.3 43.1 63.3 45.3 63.3 47.1 65.1 47.1 67.3 47.1 69.4 45.5 71.1 43.5 71.3 42.9 71.9 42.4 72.5 41.9 72.9 34.7 79.7 25.7 84 18.6 84 18.1 84 17.6 84 17.1 83.9L17.6 86.3 17.6 86.3C18 89.5 24.1 92 31.6 92 39.1 92 45.2 89.5 45.6 86.3L45.6 86.3 51.4 59C51.4 59 51.4 59 51.4 59ZM12 77.6C9 74.4 9.3 68.6 12.4 62.5L16.1 79.8C14.5 79.4 13.1 78.7 12 77.6ZM31.6 62C21.1 62 15.6 59 15.6 58 15.6 57 21.1 54 31.6 54 42.1 54 47.6 57 47.6 58 47.6 59 42.1 62 31.6 62Z"/></svg>